<?xml version="1.0" encoding="utf-8"?>
<!-- Generator: Adobe Illustrator 19.0.1, SVG Export Plug-In . SVG Version: 6.00 Build 0)  -->
<svg version="1.1" id="Layer_1" xmlns="http://www.w3.org/2000/svg" xmlns:xlink="http://www.w3.org/1999/xlink" x="0px" y="0px"
	 viewBox="0 0 60 60" style="enable-background:new 0 0 60 60;" xml:space="preserve">
<style type="text/css">
	.st0{fill:#FF3030;}
	.st1{fill:#FFFFFF;}
</style>
<path class="st0" d="M30,0C13.4,0,0,13.4,0,30v30c5.5,0,10.6-1.5,15-4c4.4,2.6,9.5,4,15,4c16.6,0,30-13.4,30-30S46.6,0,30,0z"/>
<g>
	<path class="st1" d="M9.9,36.5v8.9H5.3v-24h4.6v2.2c1.3-1.7,3.2-2.6,5.4-2.6c4.5,0,7.7,3.3,7.7,9.1s-3.2,9.1-7.7,9.1
		C13.2,39.1,11.3,38.3,9.9,36.5z M18.2,30c0-3-1.8-5-4.4-5c-1.5,0-3.2,0.9-3.9,2v6.2c0.8,1.1,2.4,2,3.9,2C16.4,35.1,18.2,33,18.2,30
		z"/>
	<path class="st1" d="M25.4,38.7V21.3h4.6v2.4c1.2-1.5,3.4-2.8,5.5-2.8v4.5c-0.3-0.1-0.8-0.1-1.3-0.1c-1.5,0-3.5,0.9-4.3,2v11.5
		H25.4z"/>
	<path class="st1" d="M36.3,30c0-4.9,3.5-9.1,9.2-9.1c5.8,0,9.2,4.2,9.2,9.1c0,5-3.5,9.1-9.2,9.1C39.8,39.1,36.3,34.9,36.3,30z
		 M50,30c0-2.7-1.6-5-4.5-5c-2.8,0-4.4,2.3-4.4,5c0,2.7,1.6,5.1,4.4,5.1C48.3,35.1,50,32.7,50,30z"/>
</g>
</svg>
